<?xml version="1.0" standalone="no"?>
<!DOCTYPE svg PUBLIC "-//W3C//DTD SVG 20010904//EN"
 "http://www.w3.org/TR/2001/REC-SVG-20010904/DTD/svg10.dtd">
<svg version="1.0" xmlns="http://www.w3.org/2000/svg"
 width="2560.000000pt" height="2560.000000pt" viewBox="0 0 2560.000000 2560.000000"
 preserveAspectRatio="xMidYMid meet">
<metadata>
Created by potrace 1.16, written by Peter Selinger 2001-2019
</metadata>
<g transform="translate(0.000000,2560.000000) scale(0.100000,-0.100000)"
fill="#000000" stroke="none">
<path d="M7072 22147 l-5702 -3112 0 -6235 0 -6235 5701 -3110 c3135 -1711
5709 -3111 5720 -3113 12 -2 2380 1284 5729 3110 l5709 3113 0 6235 0 6235
-5708 3113 c-3139 1711 -5716 3112 -5727 3111 -10 0 -2585 -1401 -5722 -3112z
m10909 -906 l5184 -2828 0 -5613 0 -5613 -5184 -2828 -5185 -2829 -30 18 c-17
10 -2352 1284 -5188 2831 l-5158 2814 0 5607 0 5607 5188 2831 c2853 1557
5187 2831 5188 2831 0 1 2333 -1272 5185 -2828z"/>
<path d="M12327 13034 c-1143 -2286 -2077 -4157 -2075 -4159 14 -10 922 -465
929 -465 9 0 4159 8291 4159 8309 0 8 -910 471 -926 471 -5 0 -944 -1870
-2087 -4156z"/>
<path d="M6095 13900 l-1100 -1100 1105 -1105 c608 -608 1108 -1104 1111
-1103 4 2 175 169 379 372 l373 368 -734 734 -734 734 734 734 734 734 -368
363 c-202 200 -374 365 -384 367 -10 1 -417 -399 -1116 -1098z"/>
<path d="M18003 14636 l-368 -365 735 -735 735 -736 -735 -735 -735 -735 373
-372 372 -373 1107 1108 1108 1107 -1100 1100 c-605 605 -1105 1100 -1112
1100 -7 0 -178 -164 -380 -364z"/>
</g>
</svg>
