<?xml version="1.0" standalone="no"?>
<!DOCTYPE svg PUBLIC "-//W3C//DTD SVG 20010904//EN"
 "http://www.w3.org/TR/2001/REC-SVG-20010904/DTD/svg10.dtd">
<svg version="1.0" xmlns="http://www.w3.org/2000/svg"
 width="934.000000pt" height="282.000000pt" viewBox="0 0 934.000000 282.000000"
 preserveAspectRatio="xMidYMid meet">
<metadata>
Created by potrace 1.16, written by Peter Selinger 2001-2019
</metadata>
<g transform="translate(0.000000,282.000000) scale(0.100000,-0.100000)"
fill="#000000" stroke="none">
<path d="M810 1425 l0 -925 145 0 145 0 0 925 0 925 -145 0 -145 0 0 -925z"/>
<path d="M1210 2236 l0 -113 138 -6 c223 -9 353 -58 472 -177 82 -81 115 -143
141 -262 18 -81 20 -115 16 -263 -6 -198 -26 -296 -87 -420 -68 -141 -178
-227 -335 -260 -42 -9 -125 -15 -207 -15 l-138 0 0 -111 0 -111 213 5 c156 3
228 8 272 21 316 88 511 314 581 673 27 137 25 393 -4 503 -109 414 -447 650
-934 650 l-128 0 0 -114z"/>
<path d="M2740 1425 l0 -925 150 0 150 0 0 925 0 925 -150 0 -150 0 0 -925z"/>
<path d="M4075 2333 c-4 -10 -146 -414 -315 -898 -170 -484 -313 -892 -319
-908 l-11 -27 159 0 158 0 238 683 c131 375 240 686 243 691 3 5 106 -283 229
-640 123 -357 230 -668 239 -691 l16 -43 154 0 c85 0 154 1 154 3 0 5 -607
1752 -627 1805 l-16 42 -147 0 c-132 0 -149 -2 -155 -17z"/>
<path d="M5410 1425 l0 -925 155 0 155 0 0 925 0 925 -155 0 -155 0 0 -925z"/>
<path d="M6448 1713 l-3 -637 -300 528 c-165 291 -305 536 -312 545 -10 13
-12 -40 -13 -267 l0 -282 312 -550 313 -550 152 0 153 0 0 925 0 925 -150 0
-150 0 -2 -637z"/>
<path d="M7210 1425 l0 -925 155 0 155 0 0 925 0 925 -155 0 -155 0 0 -925z"/>
<path d="M8248 1714 l-3 -636 -299 526 c-164 289 -305 534 -312 543 -11 15
-13 -26 -14 -264 l0 -283 313 -550 312 -550 153 0 152 0 0 925 0 925 -150 0
-150 0 -2 -636z"/>
<path d="M4026 989 c-20 -55 -36 -102 -36 -105 0 -2 108 -4 241 -4 132 0 239
4 237 8 -1 4 -18 52 -37 105 l-34 97 -167 0 -168 0 -36 -101z"/>
</g>
</svg>
